<svg xmlns="http://www.w3.org/2000/svg" viewBox="0 0 898.21 310.45">
    <defs>
        <style>.cls-1{fill:#1670b7;}.cls-2{fill:#8c8d90;}.cls-3{fill:#136fb6;}.cls-4{fill:#7f8083;}</style>
    </defs>
    <g id="Livello_2" data-name="Livello 2">
        <g id="Livello_1-2" data-name="Livello 1">
            <path class="cls-1" d="M49.79,204.3a20.21,20.21,0,0,0-3.24,2q-21.88,20.46-43.71,41A6,6,0,0,1,0,249c.6-2.61,1.22-5.22,1.81-7.83C4.39,229.74,7,218.29,9.49,206.81a8.25,8.25,0,0,1,3.33-5.22c9.23-7.1,18.35-14.33,27.48-21.54a36.94,36.94,0,0,0,2.85-2.75L66,159.12c1-.54,2.09-1,3-1.64,13-8.67,26.11-17.15,38.91-26.09,25.5-17.83,52.57-33,80-47.46,10.85-5.72,22.11-10.69,33.25-15.84a383.14,383.14,0,0,1,74.94-26.17c1.87-.43,3.7-1,6.13-1.74l-7.41-5.92-1.13-.95,0,0-1.89-1.19h0l-1.13-.89v0l0-2c3.57-9,9.86-15.47,18.86-18.77C328.42,3.7,348.16,14.35,352.93,34c3.56,14.63-4.6,31.3-19.54,37.33-3.09,1.25-3,1.2-5.17-1.64-5.28-6.83-10.77-13.51-16-20.41-2.41-3.2-5.33-3.76-8.76-2.62-10.83,3.61-21.95,6.59-32.39,11.12-43,18.65-83.21,42.14-121.73,68.74q-38.59,26.64-75,56.1a62.13,62.13,0,0,0-4.56,4.48,6.13,6.13,0,0,0-1.79.74c-3.24,2.78-6.46,5.59-9.62,8.46C55.47,198.91,52.64,201.63,49.79,204.3Z"/>
            <path class="cls-1" d="M549.62,117.89c.65-4.66.65-4.66,5.89-4.66,3.67,0,7.33,0,11,0,1.73,0,2.43.65,2.3,2.37-.08,1,0,2,0,3,0,26.49-.24,53,.09,79.45.18,15.11-6.38,26.21-18.54,34.25-19.16,12.67-42.08,9.62-57.07-5.43a39.18,39.18,0,0,1-10-17.82c6.56,0,13-.09,19.49.09,1,0,2.17,1.16,3,2,1.9,1.86,3.44,4.12,5.48,5.76,10.78,8.62,29.11,5.52,36.48-7.25a15.68,15.68,0,0,0,2.31-8.54c-.1-2.81,0-5.63,0-9.18-12,8-24.5,10.58-37.84,7A42.56,42.56,0,0,1,489,183.27a45.75,45.75,0,0,1,.53-56.35,44.82,44.82,0,0,1,12.88-10.87,45.45,45.45,0,0,1,15.46-5.24,34.64,34.64,0,0,1,16.69,1C539.72,113.55,544.66,115.87,549.62,117.89Zm.41,37.18c.73-11.82-9.27-26.61-26-26.46-16.46.14-26.22,13.95-26,27.17a26.52,26.52,0,0,0,26.41,26.27C538.61,182.12,550.09,169.79,550,155.07Z"/>
            <path class="cls-1" d="M218.76,122.52c25.35-19,50.43-8.4,61.8,6.27,12.87,16.59,11.86,41.36-2.35,56.91-14.35,15.72-38.56,20-59.14,3.74-.12,1.43-.29,2.61-.29,3.8,0,12.49,0,25,0,37.46,0,3.58-.06,3.61-3.46,3.65-4,0-8,0-12,0-3.39,0-3.39-.08-3.46-3.65,0-.66,0-1.33,0-2V117.81c0-.67,0-1.33,0-2,0-3.69-.41-3.9,3.74-3.87,4,0,8,0,12,0,3.12,0,3.13.09,3.18,3.4C218.79,117.51,218.76,119.65,218.76,122.52Zm26.64,61.63c3.58-1.16,7.43-1.84,10.71-3.57,16.27-8.57,19.26-31.49,6-44.71-9.71-9.7-24.38-10-34.34-.2a28.5,28.5,0,0,0-3.61,36.46C229.2,179.55,236.21,183.35,245.4,184.15Z"/>
            <path class="cls-2" d="M49.79,204.3c2.85-2.67,5.68-5.39,8.58-8,3.16-2.87,6.38-5.68,9.62-8.46a6.13,6.13,0,0,1,1.79-.74c2.34,6.69,4.51,13.45,7.06,20.06,5.11,13.27,12.65,25.12,21.58,36.12a145.07,145.07,0,0,0,94.2,52.16,169.53,169.53,0,0,0,31.84.58c13.73-.94,27-4.47,39.84-9.52a145.31,145.31,0,0,0,54.37-37.64c3.59-3.91,6.72-8.22,10.07-12.34.36-.45.75-.87,1.47-1.7.66,2.45-.53,3.67-1.41,5A160.64,160.64,0,0,1,289,281.18a151.08,151.08,0,0,1-52.29,24.47c-6.7,1.66-13.62,2.49-20.44,3.68-2.11.37-4.23.7-6.35,1l-4-.27-1,.08-2.92.25-8.19,0-2.92-.26-.95-.09-5,.23c-9.11-1.5-18.28-2.53-27.24-5a157.73,157.73,0,0,1-55.73-27.57,154.22,154.22,0,0,1-47-59.61C52.92,213.7,51.49,208.94,49.79,204.3Z"/>
            <path class="cls-2" d="M66,159.12,43.15,177.3c-.65-7.24-2-14.51-1.78-21.71.43-11.68,1.13-23.35,4-34.86A164.87,164.87,0,0,1,58,85.91,152.54,152.54,0,0,1,93.23,40.05,159.32,159.32,0,0,1,130.7,15,144.72,144.72,0,0,1,172.18,2.13c4.58-.65,9.14-1.36,13.71-2l4,.27.95-.08L194.8,0,201,0l2.92.24c.28.88.59,1.07,1,.06l5-.22C222.65,1.71,235.29,3.77,247.52,8A164.92,164.92,0,0,1,286,27a38.33,38.33,0,0,0,4.77,2.34l0,2c-1.49-.68-3-1.28-4.46-2-4.84-2.55-9.6-5.26-14.48-7.74-15.27-7.73-31.68-11.63-48.56-13A146.35,146.35,0,0,0,181.27,11a143.28,143.28,0,0,0-67.84,34.44A143.8,143.8,0,0,0,66,159.12Z"/>
            <path class="cls-1" d="M849.79,193.62c-10.83,7.27-21.7,10.93-34,9-11.31-1.79-20.88-6.76-28.13-15.61-14.42-17.62-14-41,.32-58.13,11.7-14,36.21-23.61,61.21-6.81.19-.21.55-.42.56-.64.26-6.45.25-6.45,6.7-6.45,2.66,0,5.33,0,8,0,1.64,0,2.52.51,2.34,2.3-.08.82,0,1.66,0,2.49v80c0,.83,0,1.66,0,2.49.07,1.52-.7,2-2.13,2-4.16,0-8.33-.07-12.49,0-1.68,0-2.45-.51-2.38-2.28C849.86,199.45,849.79,197,849.79,193.62Zm-27.72-9.28C833.84,186,849,174,848.91,158.19c0-12.58-9.74-26.53-26.66-26.67S795.62,146.05,795.47,158C795.29,172.61,809.34,185.84,822.07,184.34Z"/>
            <path class="cls-1" d="M471.2,154.43c.75,23.77-19,44.79-44.32,44.8-22.65,0-44.4-16.64-44.69-44.62-.28-27.71,23-44.78,44.51-44.81C449.78,109.76,471.88,129.3,471.2,154.43Zm-44.29,26.91c7.71,0,12.84-2.21,18.2-7.66a26.58,26.58,0,0,0,7.44-14.89c3.05-19.65-14.69-35.21-31.8-30.71C407.7,131.51,399.27,144,401,158.58,402.6,171.92,415.58,182.81,426.91,181.34Z"/>
            <path class="cls-1" d="M646.37,169.86c1.64,5.49,3,10.44,4.61,15.3.6,1.82.48,3-1,4.36-14.91,13.49-35.67,15.87-52.77,4.37-11.84-8-18.29-19.29-19.58-33.66A44.17,44.17,0,0,1,587.83,127c8.12-9.86,18.78-15.41,31.59-15.65,17.29-.33,30.14,7.66,39,22.35,1.32,2.18-.08,2.95-1.56,3.85q-9.81,5.92-19.6,11.87-16.83,10.2-33.65,20.41c-4,2.45-4,2.7-.47,5.88a27.89,27.89,0,0,0,38.72-.94C643.29,173.4,644.55,171.86,646.37,169.86ZM594.1,156.77l41.33-25c-10-5-19.17-4.71-27.93.61S594.42,145.6,594.1,156.77Z"/>
            <path class="cls-1" d="M728.7,173.88c2,5.53,3.67,10.53,5.54,15.48.69,1.83-.66,2.42-1.59,3.19a39.47,39.47,0,0,1-18.3,8.58c-23.13,4.17-47.49-9.46-52.85-34.42-4.64-21.63,5.28-40.83,24.83-49.9,16.06-7.46,31.64-5.66,46.26,4.35.82.56,1.58,1.21,2.39,1.78,1.19.85,1.27,1.77.42,3q-3.93,5.46-7.74,11c-.88,1.27-1.71,1.21-2.77.29-4.54-3.93-9.87-5.74-15.79-6.6-14.21-2.06-28.28,10.22-29.49,24.64-1.3,15.36,13.13,30.6,31,27.95a31,31,0,0,0,14-6.12C725.86,176.18,727,175.23,728.7,173.88Z"/>
            <path class="cls-1" d="M318.49,117.63c2-1,3.71-2,5.44-2.9,15.88-8.62,36.29-5.64,49.35,7.12,5.29,5.16,5.35,5.12,1.16,11.08-1.34,1.91-2.91,3.68-4.05,5.69-1.28,2.24-2.38,1.5-3.82.3a67.54,67.54,0,0,0-7-5.52c-9.28-5.83-19-6.42-28.85-1.58-3.39,1.67-6.33,4.24-9.51,6.35-2.15,1.43-2.76,3.3-2.74,5.91.13,17,.07,34,.06,51,0,3.85,0,3.87-3.69,3.9-4.34,0-8.67-.11-13,.05-2.29.09-3-.82-2.76-2.92a19,19,0,0,0,0-2v-78a10.56,10.56,0,0,1,.07-3c.23-.75,1-1.86,1.59-1.88,5.33-.14,10.67-.13,16,0,.61,0,1.57,1.06,1.71,1.76A25.58,25.58,0,0,1,318.49,117.63Z"/>
            <path class="cls-3" d="M796.65,96.23l0,15c-9.59,0-19.19,0-28.78,0a9.86,9.86,0,0,0-3.82.53c-1,.46-2,1.58-.1,2.48.07,1,.19,2,.19,3l-.09,83.94-19.18,0c0-1.82-.14-3.65-.14-5.47V81.7c0-1.83.09-3.65.14-5.47l19.17,0q0,7.95-.05,15.9c-2.12,1.4-.78,1.78.64,2.14l.18.05c.09,2.35,1.84,1.85,3.23,1.85Q782.37,96.25,796.65,96.23Z"/>
            <path class="cls-1" d="M764,114.26c-1.86-.9-.94-2,.1-2.48a9.86,9.86,0,0,1,3.82-.53c9.59,0,19.19,0,28.78,0-.08,2.52-2,1.73-3.31,1.74-7.8.07-15.59,0-23.38,0a19.1,19.1,0,0,0-3.47.05A10.76,10.76,0,0,0,764,114.26Z"/>
            <path class="cls-1" d="M796.65,96.23q-14.28,0-28.58,0c-1.39,0-3.14.5-3.23-1.85q14.73-.06,29.45-.12C795.59,94.25,797.19,94,796.65,96.23Z"/>
            <path class="cls-1" d="M744.9,201.23l19.18,0c1.09,1.8-.24,1.92-1.43,1.93q-7.41.06-14.82,0a12.76,12.76,0,0,1-2.89-.34C744.81,202.75,744.91,201.77,744.9,201.23Z"/>
            <path class="cls-1" d="M764.07,76.28l-19.17,0c.15-.63.29-1.79.45-1.79q9.15-.12,18.3,0C763.8,74.48,763.93,75.65,764.07,76.28Z"/>
            <path class="cls-1" d="M879.88,127.24c-2.3-4.34-1.58-8.78,1.92-11.85,3.33-2.91,8.18-3,12.13-.2l-.21.21a15.45,15.45,0,0,1-1.93-.27c-7.23-2-12,1.68-11.91,9.11,0,1,0,2,0,3Z"/>
            <path class="cls-1" d="M894.15,130.51c-4,3.38-7.38,3.41-11.6.09.14-.16.28-.31.43-.46a12.36,12.36,0,0,0,10.81,0Z"/>
            <path class="cls-1" d="M898.11,120.23c0,1.66.07,3.33.1,5-.36.39-.73.78-1.1,1.16l-.26-.2a16.59,16.59,0,0,0-1.29-8.63l.39-.39Z"/>
            <path class="cls-1" d="M764.66,94.32c-1.42-.36-2.76-.74-.64-2.14C764.23,92.89,764.45,93.6,764.66,94.32Z"/>
            <path class="cls-1" d="M893.93,115.19l2,2-.39.39-1.84-2.16Z"/>
            <path class="cls-1" d="M897.11,126.39c-.33.69-.66,1.37-1,2l-.36-.33,1.08-1.92Z"/>
            <path class="cls-1" d="M881.47,129.62l-.87-1.08c.12-.14.26-.27.39-.41l1,1Z"/>
            <path class="cls-1" d="M880.6,128.54l-.72-1.3,0,0,1.06.93C880.86,128.27,880.72,128.4,880.6,128.54Z"/>
            <path class="cls-1" d="M882.55,130.6l-1.08-1,.5-.47,1,1C882.83,130.29,882.69,130.44,882.55,130.6Z"/>
            <path class="cls-1" d="M895.21,129.57l-1.06.94-.36-.39,1-1C894.94,129.27,895.07,129.42,895.21,129.57Z"/>
            <path class="cls-1" d="M896.13,128.44c-.31.38-.62.75-.92,1.13-.14-.15-.27-.3-.41-.44l1-1Z"/>
            <path class="cls-4" d="M189.93,310.1l.95.09-.48.05Z"/>
            <path class="cls-4" d="M190.88.28l-.95.08A1.26,1.26,0,0,1,190.88.28Z"/>
            <path class="cls-4" d="M204.87.32c-.38,1-.69.82-1-.06A1.35,1.35,0,0,1,204.87.32Z"/>
            <path class="cls-4" d="M204.91,310.18l1-.08-.47.14Z"/>
            <path class="cls-2" d="M293.83,33.34l-1.89-1.19Z"/>
            <path class="cls-2" d="M294.93,34.26l-1.13-.95Z"/>
            <path class="cls-2" d="M292,32.16l-1.13-.89Z"/>
            <path class="cls-1" d="M890.85,123.16a16.88,16.88,0,0,0,.06-2.46c-.21-2-1.82-1.75-3-1.5a2.61,2.61,0,0,0-1.69,1.75c-.22,2.4-.11,4.82-.55,7.22-1.57-3-.76-6.18-.89-9.25,0-.45,1-1.16,1.68-1.38a3.88,3.88,0,0,1,2.45,0c1.3.52,2.83,1.09,3.61,2.13,1.28,1.69-.56,2.59-1.58,3.59Z"/>
            <path class="cls-1" d="M891,124.15c.57,1,1.19,2,1.67,3.09.07.15-.48.64-.81.85-.11.06-.65-.25-.68-.44-.18-1.09-.27-2.18-.39-3.28Z"/>
            <path class="cls-1" d="M890.91,123.24a1.76,1.76,0,0,1,.07.91l-.21.22a7,7,0,0,1-1.38-.12,7.47,7.47,0,0,1-1.23-.55,5.3,5.3,0,0,1,1.41-.81c.38-.09.85.17,1.28.27Z"/>
        </g>
    </g>
</svg>