<?xml version="1.0" encoding="UTF-8" standalone="no"?>
<!DOCTYPE svg PUBLIC "-//W3C//DTD SVG 1.1//EN" "http://www.w3.org/Graphics/SVG/1.1/DTD/svg11.dtd">
<svg width="100%" height="100%" viewBox="0 0 1080 1080" version="1.1" xmlns="http://www.w3.org/2000/svg" xmlns:xlink="http://www.w3.org/1999/xlink" xml:space="preserve" xmlns:serif="http://www.serif.com/" style="fill-rule:evenodd;clip-rule:evenodd;stroke-linejoin:round;stroke-miterlimit:2;">
    <g id="C" transform="matrix(1,0,0,1,-2.49948,0)">
        <path d="M535.491,112.997L940.502,345.499L896,370.749L535.497,163.497L175,370.75L175,785.25L535.499,993C535.499,993 896.004,785.25 896,785.25C895.996,785.25 940.499,811.249 940.499,811.249L535.499,1044L130.499,811.25L130.5,345.5L535.491,112.997Z" style="fill:rgb(0,4,125);"/>
        <path d="M896.799,773.284C898.372,771.233 900.895,770.737 904.814,773.027C912.02,777.239 948.065,798.297 948.065,798.297C952.685,800.996 955.518,805.952 955.499,811.302C955.48,816.653 952.612,821.588 947.973,824.254L542.974,1057.01C538.346,1059.66 532.653,1059.66 528.025,1057.01L123.025,824.255C118.37,821.58 115.499,816.62 115.499,811.25L115.5,345.5C115.5,340.128 118.373,335.166 123.032,332.491L528.023,99.989C532.647,97.334 538.334,97.333 542.959,99.988L947.97,332.49C952.641,335.171 955.516,340.151 955.502,345.537C955.489,350.922 952.589,355.887 947.905,358.545L903.402,383.795C898.785,386.415 893.126,386.399 888.524,383.753C888.524,383.753 535.497,180.799 535.497,180.799C484.512,210.111 190,379.428 190,379.428C190,438.285 190,776.582 190,776.582C236.866,803.59 488.694,948.714 535.499,975.687C581.504,949.176 825.579,808.521 878.417,778.071C884.255,774.706 888.4,772.317 888.4,772.317L889.642,776.881C892.777,772.975 895.997,770.25 896,770.25L896.799,773.284ZM535.491,112.997L940.502,345.499L896,370.749L535.497,163.497L175,370.75L175,785.25L535.499,993C535.499,993 896.004,785.25 896,785.25C895.996,785.25 940.499,811.249 940.499,811.249L535.499,1044L130.499,811.25L130.5,345.5L535.491,112.997Z" style="fill:rgb(0,4,125);"/>
    </g>
    <g id="S">
        <path d="M850.999,396.5L535.5,215.249L220.001,396.497L219.999,422.498L783.999,746.999L558,876.997L557.996,928L850.976,760.012L850.962,731.967L286.988,408.999L535.497,265.998L806.997,422.501L850.999,396.5Z" style="fill:rgb(2,156,0);"/>
        <path d="M858.63,409.414C863.225,406.698 866.032,401.745 865.999,396.408C865.966,391.07 863.1,386.152 858.471,383.493L542.972,202.242C538.345,199.584 532.654,199.584 528.028,202.242L212.529,383.491C207.873,386.166 205.002,391.126 205.001,396.496L204.999,422.496C204.998,427.864 207.866,432.823 212.518,435.499L753.918,746.998C753.918,746.998 550.521,863.995 550.521,863.995C545.868,866.671 543,871.629 543,876.996L542.996,927.999C542.995,933.35 545.846,938.296 550.476,940.979C555.106,943.662 560.815,943.674 565.457,941.013L858.438,773.025C863.103,770.35 865.979,765.383 865.976,760.005L865.962,731.959C865.959,726.584 863.081,721.621 858.416,718.95L317.117,408.967C370.589,378.198 502.647,302.207 535.491,283.308C535.491,283.308 799.506,435.496 799.506,435.496C804.193,438.198 809.971,438.166 814.628,435.414L858.63,409.414ZM850.999,396.5L535.5,215.249L220.001,396.497L219.999,422.498L783.999,746.999L558,876.997L557.996,928L850.976,760.012L850.962,731.967L286.988,408.999L535.497,265.998L806.997,422.501L850.999,396.5Z" style="fill:rgb(2,156,0);"/>
    </g>
    <g id="L">
        <path d="M219.998,472.998L219.999,759.999L512.995,928L512.995,876.996L263.997,734.998L263.997,494.996L219.998,472.998Z" style="fill:rgb(0,178,255);"/>
        <path d="M226.706,459.581C222.056,457.256 216.534,457.505 212.112,460.238C207.69,462.971 204.998,467.799 204.998,472.998L204.999,759.999C204.999,765.374 207.875,770.338 212.537,773.012L505.534,941.013C510.176,943.674 515.885,943.662 520.515,940.979C525.145,938.297 527.995,933.351 527.995,928L527.995,876.996C527.995,871.609 525.106,866.635 520.426,863.966L278.997,726.285C278.997,726.285 278.997,494.996 278.997,494.996C278.997,489.315 275.787,484.121 270.705,481.58L226.706,459.581ZM219.998,472.998L219.999,759.999L512.995,928L512.995,876.996L263.997,734.998L263.997,494.996L219.998,472.998Z" style="fill:rgb(0,178,255);"/>
    </g>
    <g transform="matrix(2.07144,1.19595,-1.19595,2.07144,15.0404,406.335)">
        <text x="170.501px" y="91.771px" style="font-family:'BerlinSansFB-Reg', 'Berlin Sans FB', sans-serif;font-size:24px;fill:white;">LICEO</text>
    </g>
    <g transform="matrix(2.07144,1.19595,-1.19595,2.07144,-63.1646,465.262)">
        <text x="170.501px" y="91.771px" style="font-family:'BerlinSansFB-Reg', 'Berlin Sans FB', sans-serif;font-size:24px;fill:white;">LEONARDO</text>
    </g>
    <g transform="matrix(2.07144,-1.19595,1.19595,2.07144,126.154,944.152)">
        <text x="170.501px" y="91.771px" style="font-family:'BerlinSansFB-Reg', 'Berlin Sans FB', sans-serif;font-size:24px;fill:white;">SCIENTIFICO</text>
    </g>
    <g transform="matrix(2.07144,-1.19595,1.19595,2.07144,198.604,1001.95)">
        <text x="170.501px" y="91.771px" style="font-family:'BerlinSansFB-Reg', 'Berlin Sans FB', sans-serif;font-size:24px;fill:white;">COCITO</text>
    </g>
</svg>
